HIERARCHY
ROOT Joint1
{
	OFFSET 0.000000 0.000000 0.000000
	CHANNELS 6 Xposition Yposition Zposition Xrotation Yrotation Zrotation
	JOINT Joint2
	{
		OFFSET -0.000000 0.000000 1.456275
		CHANNELS 6 Xposition Yposition Zposition Xrotation Yrotation Zrotation
		JOINT Joint3
		{
			OFFSET -0.000000 0.000002 1.471446
			CHANNELS 6 Xposition Yposition Zposition Xrotation Yrotation Zrotation
			JOINT Joint4
			{
				OFFSET 0.625745 0.000000 0.917755
				CHANNELS 6 Xposition Yposition Zposition Xrotation Yrotation Zrotation
				JOINT Joint5
				{
					OFFSET -0.629534 0.000001 0.940221
					CHANNELS 6 Xposition Yposition Zposition Xrotation Yrotation Zrotation
					JOINT Joint6
					{
						OFFSET -0.000001 0.113772 1.960660
						CHANNELS 6 Xposition Yposition Zposition Xrotation Yrotation Zrotation
						JOINT Joint7
						{
							OFFSET -0.669733 -0.113771 0.388340
							CHANNELS 6 Xposition Yposition Zposition Xrotation Yrotation Zrotation
							End Site
							{
								OFFSET 0.005509 0.005509 0.438980
							}
						}
					}
				}
			}
		}
	}
}
MOTION
Frames: 22
Frame Time: 0.041667
0.000000 0.000000 0.000000 -0.000000 1.019410 82.223293 -0.000000 0.000000 1.456275 0.000000 -9.532031 -0.000000 -0.000000 0.000002 1.471446 -0.000003 -1.133454 62.984002 0.625744 0.000000 0.917755 0.000020 101.482643 -0.000006 -0.629534 0.000001 0.940221 -0.000004 1.709737 66.608572 -0.000001 0.113772 1.960660 -88.303882 155.627103 0.000003 -0.669733 -0.113771 0.388341 0.290389 2.758004 56.812889 
0.000000 0.000000 0.000000 -0.000000 1.019410 83.585430 -0.000000 0.000000 1.456275 -0.000000 -8.944746 0.000000 -0.000000 0.000002 1.471446 -0.000003 -1.133456 64.027976 0.625745 0.000000 0.917755 0.000000 100.926932 0.000000 -0.629533 0.000001 0.940220 -0.000005 1.709736 67.712276 -0.000001 0.113771 1.960661 -88.303882 156.714606 -0.000002 -0.669733 -0.113771 0.388340 0.294841 2.735477 55.518858 
0.000000 0.000000 0.000000 -0.000000 1.019410 85.250897 -0.000000 0.000000 1.456275 0.000000 -8.226681 -0.000000 -0.000000 0.000002 1.471446 -0.000003 -1.133455 65.304429 0.625744 0.000000 0.917755 0.000035 100.247465 -0.000005 -0.629534 0.000001 0.940221 -0.000005 1.709735 69.061778 -0.000001 0.113772 1.960660 -88.303882 158.044280 0.000001 -0.669733 -0.113771 0.388339 0.299590 2.707806 53.936703 
0.000000 0.000000 0.000000 -0.000000 1.019410 87.219678 -0.000000 0.000000 1.456275 -0.000000 -7.377835 -0.000000 -0.000000 0.000002 1.471446 -0.000003 -1.133455 66.813361 0.625744 0.000000 0.917755 -0.000001 99.444242 -0.000005 -0.629534 0.000001 0.940221 -0.000002 1.709737 70.657064 -0.000001 0.113772 1.960661 -88.303882 159.616139 0.000002 -0.669733 -0.113771 0.388340 0.304215 2.674944 52.066443 
0.000000 0.000000 0.000000 -0.000000 1.019410 89.188467 -0.000000 0.000000 1.456275 -0.000000 -6.528989 -0.000000 -0.000000 0.000002 1.471446 -0.000003 -1.133455 68.322287 0.625745 0.000000 0.917755 0.000007 98.641025 -0.000007 -0.629534 0.000001 0.940221 -0.000001 1.709737 72.252337 -0.000001 0.113772 1.960660 -88.303882 161.187984 -0.000001 -0.669733 -0.113771 0.388341 0.307763 2.641946 50.196232 
0.000000 0.000000 0.000000 -0.000000 1.019410 90.853933 -0.000000 0.000000 1.456275 -0.000000 -5.810923 0.000000 -0.000000 0.000002 1.471445 -0.000003 -1.133455 69.598747 0.625745 0.000000 0.917755 0.000022 97.961558 0.000000 -0.629534 0.000001 0.940221 0.000002 1.709737 73.601832 -0.000001 0.113772 1.960660 -88.303882 162.517658 -0.000001 -0.669733 -0.113771 0.388340 0.309924 2.613954 48.614213 
0.000000 0.000000 0.000000 -0.000000 1.019410 92.216064 -0.000000 -0.000000 1.456275 -0.000000 -5.223639 -0.000000 -0.000000 0.000002 1.471446 -0.000004 -1.133454 70.642720 0.625744 0.000000 0.917755 0.000005 97.405840 -0.000018 -0.629534 0.000001 0.940221 0.000001 1.709736 74.705536 -0.000001 0.113771 1.960660 -88.303875 163.605147 0.000000 -0.669733 -0.113771 0.388340 0.311113 2.591024 47.320346 
0.000000 0.000000 0.000000 -0.000000 1.019410 94.488181 -0.000000 -0.000000 1.456275 0.000000 -4.244013 0.000000 -0.000000 0.000002 1.471446 -0.000004 -1.133454 72.384125 0.625745 0.000000 0.917755 0.000022 96.478867 -0.000001 -0.629534 0.000001 0.940221 -0.000002 1.709736 76.546606 -0.000001 0.113771 1.960660 -88.303882 165.419190 -0.000000 -0.669733 -0.113771 0.388340 0.311944 2.552734 45.162150 
0.000000 0.000000 0.000000 -0.000000 1.019410 98.122436 -0.000000 -0.000000 1.456275 0.000000 -2.677101 -0.000001 -0.000000 0.000002 1.471446 -0.000004 -1.133455 75.169510 0.625745 0.000000 0.917755 0.000025 94.996183 -0.000013 -0.629534 0.000001 0.940221 -0.000001 1.709736 79.491388 -0.000001 0.113772 1.960661 -88.303882 168.320723 0.000001 -0.669733 -0.113771 0.388340 0.310268 2.491502 41.710258 
0.000000 0.000000 0.000000 -0.000000 1.019410 100.383871 -0.000000 -0.000000 1.456275 -0.000000 -1.702081 -0.000001 -0.000000 0.000002 1.471445 -0.000004 -1.133455 76.902739 0.625745 0.000000 0.917755 0.000021 94.073575 -0.000013 -0.629534 0.000001 0.940221 -0.000001 1.709736 81.323798 -0.000001 0.113772 1.960660 -88.303882 170.126202 0.000001 -0.669733 -0.113771 0.388340 0.307367 2.453492 39.562372 
0.000000 0.000000 0.000000 -0.000000 1.019410 101.756684 -0.000000 -0.000000 1.456275 0.000000 -1.110190 0.000001 -0.000000 0.000002 1.471446 -0.000004 -1.133455 77.954889 0.625745 0.000000 0.917755 0.000025 93.513500 -0.000016 -0.629534 0.000001 0.940221 -0.000001 1.709736 82.436162 -0.000001 0.113772 1.960660 -88.303882 171.222242 0.000001 -0.669733 -0.113771 0.388340 0.304909 2.430482 38.258519 
0.000000 0.000000 0.000000 -0.000000 1.019410 103.462742 -0.000000 0.000000 1.456275 -0.000000 -0.374622 -0.000001 -0.000000 0.000002 1.471446 -0.000005 -1.133455 79.262460 0.625745 0.000000 0.917755 0.000027 92.817469 -0.000020 -0.629534 0.000001 0.940221 -0.000001 1.709736 83.818552 -0.000001 0.113772 1.960661 -88.303882 172.584332 0.000001 -0.669733 -0.113771 0.388340 0.301127 2.401973 36.638190 
0.000000 0.000000 0.000000 -0.000000 1.019410 105.390932 -0.000000 -0.000000 1.456275 0.000000 0.456721 0.000001 -0.000000 0.000002 1.471446 -0.000004 -1.133454 80.740274 0.625744 0.000000 0.917755 0.000067 92.030809 -0.000034 -0.629533 0.000001 0.940221 -0.000001 1.709736 85.380944 -0.000001 0.113772 1.960660 -88.303882 174.123775 0.000000 -0.669733 -0.113771 0.388340 0.295882 2.369895 34.806921 
0.000000 0.000000 0.000000 -0.000000 1.019410 107.208008 -0.000000 -0.000000 1.456275 -0.000000 1.240158 0.000001 -0.000000 0.000002 1.471445 -0.000005 -1.133455 82.132929 0.625745 0.000000 0.917755 0.000079 91.289488 -0.000045 -0.629533 0.000001 0.940221 -0.000000 1.709736 86.853300 -0.000001 0.113772 1.960660 -88.303882 175.574507 0.000001 -0.669733 -0.113771 0.388341 0.290003 2.339834 33.081226 
0.000000 0.000000 0.000000 -0.000000 1.019410 109.025187 -0.000000 -0.000000 1.456275 -0.000000 2.023632 -0.000002 -0.000000 0.000002 1.471445 -0.000005 -1.133454 83.525653 0.625745 0.000000 0.917755 0.000170 90.548125 -0.000133 -0.629534 0.000001 0.940221 0.000000 1.709736 88.325718 -0.000001 0.113773 1.960660 -88.303882 177.025307 0.000001 -0.669733 -0.113771 0.388340 0.283221 2.309961 31.355472 
0.000000 0.000000 0.000000 -0.000000 1.019410 110.953541 -0.000000 0.000000 1.456275 0.000000 2.855043 -0.000002 -0.000000 0.000002 1.471445 -0.000005 -1.133454 85.003589 0.625745 0.000000 0.917754 -0.000072 89.761404 -0.000075 -0.629533 0.000001 0.940221 -0.000002 1.709736 89.888233 -0.000001 0.113772 1.960660 -88.303882 178.564859 0.000001 -0.669733 -0.113771 0.388340 0.275043 2.278500 29.524169 
0.000000 0.000000 0.000000 -0.000000 1.019410 112.659435 -0.000000 0.000000 1.456275 0.000000 3.590543 0.000000 -0.000000 0.000002 1.471445 -0.000005 -1.133455 86.311038 0.625745 0.000000 0.917755 -0.000124 89.065435 0.000072 -0.629534 0.000001 0.940221 0.000001 1.709736 91.270500 -0.000001 0.113772 1.960660 -88.303882 179.926826 0.000001 -0.669733 -0.113771 0.388341 0.266973 2.250898 27.904149 
0.000000 0.000000 0.000000 -0.000000 1.019410 114.031702 -0.000000 0.000000 1.456275 -0.000000 4.182195 -0.000001 -0.000000 0.000002 1.471445 -0.000005 -1.133454 87.362764 0.625745 0.000000 0.917755 -0.000063 88.505584 0.000001 -0.629534 0.000001 0.940221 -0.000002 1.709736 92.382420 -0.000001 0.113772 1.960660 -88.303882 181.022443 0.000004 -0.669733 -0.113771 0.388341 0.259916 2.228867 26.600996 
0.000000 0.000000 0.000000 -0.000000 1.019410 116.293669 -0.000000 -0.000000 1.456275 0.000000 5.157454 0.000000 -0.000000 0.000002 1.471445 -0.000005 -1.133455 89.096416 0.625744 0.000000 0.917755 0.000017 87.582751 0.000006 -0.629534 0.000001 0.940221 -0.000001 1.709736 94.215274 -0.000001 0.113771 1.960660 -88.303882 182.828373 0.000002 -0.669733 -0.113771 0.388340 0.247196 2.192920 24.452945 
0.000000 0.000000 0.000000 -0.000000 1.019410 119.927945 -0.000000 -0.000000 1.456275 0.000000 6.724366 -0.000000 -0.000000 0.000002 1.471446 -0.000006 -1.133455 91.881802 0.625745 0.000001 0.917755 -0.000025 86.100060 0.000032 -0.629534 0.000001 0.940221 -0.000002 1.709736 97.160056 -0.000001 0.113772 1.960660 -88.303882 185.729905 0.000003 -0.669733 -0.113771 0.388340 0.223963 2.136235 21.001852 
0.000000 0.000000 0.000000 -0.000000 1.019410 122.192221 -0.000000 0.000000 1.456275 0.000000 7.700609 -0.000001 -0.000000 0.000002 1.471446 -0.000005 -1.133454 93.617196 0.625745 0.000000 0.917755 0.000015 85.176291 0.000032 -0.629534 0.000001 0.940221 -0.000003 1.709736 98.994761 -0.000001 0.113772 1.960661 -88.303882 187.537665 -0.000002 -0.669733 -0.113771 0.388340 0.207779 2.101665 18.851749 
0.000000 0.000000 0.000000 -0.000000 1.019410 123.562193 -0.000000 0.000000 1.456275 -0.000000 8.291276 -0.000001 -0.000000 0.000002 1.471445 -0.000006 -1.133455 94.667180 0.625745 0.000000 0.917755 -0.000049 84.617376 0.000029 -0.629533 0.000001 0.940221 -0.000003 1.709736 100.104830 -0.000001 0.113772 1.960661 -88.303882 188.631424 0.000004 -0.669733 -0.113771 0.388340 0.197359 2.081051 17.550868 
